<mxfile host="app.diagrams.net" agent="Mozilla/5.0 (Windows NT 10.0; Win64; x64) AppleWebKit/537.36 (KHTML, like Gecko) Chrome/135.0.0.0 Safari/537.36" version="26.2.9">
  <diagram id="C5RBs43oDa-KdzZeNtuy" name="Page-1">
    <mxGraphModel dx="3406" dy="2876" grid="1" gridSize="14" guides="1" tooltips="1" connect="1" arrows="1" fold="1" page="1" pageScale="1" pageWidth="2339" pageHeight="3300" math="0" shadow="0" adaptiveColors="auto">
      <root>
        <mxCell id="WIyWlLk6GJQsqaUBKTNV-0" />
        <mxCell id="WIyWlLk6GJQsqaUBKTNV-1" parent="WIyWlLk6GJQsqaUBKTNV-0" />
        <mxCell id="XgfCKwN_KVts_UlWrQIR-91" value="Embeddings&lt;div&gt;And&lt;/div&gt;&lt;div&gt;Vectorisation&lt;/div&gt;" style="rounded=0;whiteSpace=wrap;html=1;align=left;fillColor=#dae8fc;strokeColor=#6c8ebf;labelBackgroundColor=none;verticalAlign=top;fontSize=20;direction=south;" vertex="1" parent="WIyWlLk6GJQsqaUBKTNV-1">
          <mxGeometry x="-1092" y="2135" width="140" height="714" as="geometry" />
        </mxCell>
        <mxCell id="XgfCKwN_KVts_UlWrQIR-93" value="Preprocessing&amp;nbsp;&lt;div&gt;and&amp;nbsp;&lt;/div&gt;&lt;div&gt;tokenization&lt;/div&gt;" style="rounded=0;whiteSpace=wrap;html=1;align=left;fillColor=#bac8d3;strokeColor=#23445d;labelBackgroundColor=none;verticalAlign=top;fontSize=20;direction=south;" vertex="1" parent="WIyWlLk6GJQsqaUBKTNV-1">
          <mxGeometry x="-1246" y="2279" width="140" height="436" as="geometry" />
        </mxCell>
        <mxCell id="XgfCKwN_KVts_UlWrQIR-90" value="BILSTM RNN" style="rounded=0;whiteSpace=wrap;html=1;align=left;fillColor=#e1d5e7;strokeColor=#9673a6;labelBackgroundColor=none;verticalAlign=top;fontSize=20;direction=south;" vertex="1" parent="WIyWlLk6GJQsqaUBKTNV-1">
          <mxGeometry x="-784" y="2100" width="798" height="794" as="geometry" />
        </mxCell>
        <mxCell id="XgfCKwN_KVts_UlWrQIR-128" value="Projection&lt;div&gt;Layer&lt;/div&gt;&lt;div&gt;[Relu]&lt;/div&gt;" style="rounded=0;whiteSpace=wrap;html=1;align=center;fillColor=#76608a;strokeColor=#432D57;labelBackgroundColor=none;verticalAlign=top;fontSize=20;direction=south;fontColor=#ffffff;" vertex="1" parent="WIyWlLk6GJQsqaUBKTNV-1">
          <mxGeometry x="-420" y="2264.5" width="98" height="521" as="geometry" />
        </mxCell>
        <mxCell id="XgfCKwN_KVts_UlWrQIR-92" value="&lt;span&gt;Input Layer&lt;/span&gt;" style="rounded=0;whiteSpace=wrap;html=1;align=left;fillColor=#fff2cc;strokeColor=#d6b656;labelBackgroundColor=none;verticalAlign=top;fontSize=20;direction=south;" vertex="1" parent="WIyWlLk6GJQsqaUBKTNV-1">
          <mxGeometry x="-938" y="2140" width="140" height="714" as="geometry" />
        </mxCell>
        <mxCell id="XgfCKwN_KVts_UlWrQIR-12" value="BILSTM RNN" style="rounded=0;whiteSpace=wrap;html=1;align=left;fillColor=#e1d5e7;strokeColor=#9673a6;labelBackgroundColor=none;verticalAlign=top;fontSize=20;" vertex="1" parent="WIyWlLk6GJQsqaUBKTNV-1">
          <mxGeometry x="-182" y="532" width="850" height="614" as="geometry" />
        </mxCell>
        <mxCell id="XgfCKwN_KVts_UlWrQIR-63" value="Projection&lt;div&gt;Layer&lt;/div&gt;" style="rounded=0;whiteSpace=wrap;html=1;align=left;fillColor=light-dark(#FFF2CC,#724FFF);strokeColor=#d6b656;labelBackgroundColor=none;verticalAlign=top;fontSize=20;" vertex="1" parent="WIyWlLk6GJQsqaUBKTNV-1">
          <mxGeometry x="-3.5" y="775.5" width="521" height="57" as="geometry" />
        </mxCell>
        <mxCell id="XgfCKwN_KVts_UlWrQIR-1" value="Embeddings&lt;div&gt;And&lt;/div&gt;&lt;div&gt;Vectorisation&lt;/div&gt;" style="rounded=0;whiteSpace=wrap;html=1;align=left;fillColor=#dae8fc;strokeColor=#6c8ebf;labelBackgroundColor=none;verticalAlign=top;fontSize=20;" vertex="1" parent="WIyWlLk6GJQsqaUBKTNV-1">
          <mxGeometry x="-182" y="1277" width="850" height="90" as="geometry" />
        </mxCell>
        <mxCell id="XgfCKwN_KVts_UlWrQIR-2" value="&lt;span&gt;Input Layer&lt;/span&gt;" style="rounded=0;whiteSpace=wrap;html=1;align=left;fillColor=#fff2cc;strokeColor=#d6b656;labelBackgroundColor=none;verticalAlign=top;fontSize=20;" vertex="1" parent="WIyWlLk6GJQsqaUBKTNV-1">
          <mxGeometry x="-182" y="1162" width="850" height="100" as="geometry" />
        </mxCell>
        <mxCell id="XgfCKwN_KVts_UlWrQIR-3" style="edgeStyle=orthogonalEdgeStyle;rounded=0;orthogonalLoop=1;jettySize=auto;html=1;exitX=0.5;exitY=0;exitDx=0;exitDy=0;entryX=0.5;entryY=1;entryDx=0;entryDy=0;" edge="1" parent="WIyWlLk6GJQsqaUBKTNV-1" source="XgfCKwN_KVts_UlWrQIR-4" target="XgfCKwN_KVts_UlWrQIR-9">
          <mxGeometry relative="1" as="geometry" />
        </mxCell>
        <mxCell id="XgfCKwN_KVts_UlWrQIR-4" value="(premise, hypothesis)&lt;div&gt;Tokinised&lt;/div&gt;" style="rounded=0;whiteSpace=wrap;html=1;" vertex="1" parent="WIyWlLk6GJQsqaUBKTNV-1">
          <mxGeometry x="-42" y="1292" width="120" height="60" as="geometry" />
        </mxCell>
        <mxCell id="XgfCKwN_KVts_UlWrQIR-5" style="edgeStyle=orthogonalEdgeStyle;rounded=0;orthogonalLoop=1;jettySize=auto;html=1;exitX=0.5;exitY=0;exitDx=0;exitDy=0;entryX=0.5;entryY=1;entryDx=0;entryDy=0;" edge="1" parent="WIyWlLk6GJQsqaUBKTNV-1" source="XgfCKwN_KVts_UlWrQIR-6">
          <mxGeometry relative="1" as="geometry">
            <mxPoint x="298" y="1242" as="targetPoint" />
          </mxGeometry>
        </mxCell>
        <mxCell id="XgfCKwN_KVts_UlWrQIR-6" value="premise Tokinosed" style="rounded=0;whiteSpace=wrap;html=1;" vertex="1" parent="WIyWlLk6GJQsqaUBKTNV-1">
          <mxGeometry x="238" y="1292" width="120" height="60" as="geometry" />
        </mxCell>
        <mxCell id="XgfCKwN_KVts_UlWrQIR-7" style="edgeStyle=orthogonalEdgeStyle;rounded=0;orthogonalLoop=1;jettySize=auto;html=1;exitX=0.5;exitY=0;exitDx=0;exitDy=0;entryX=0.5;entryY=1;entryDx=0;entryDy=0;" edge="1" parent="WIyWlLk6GJQsqaUBKTNV-1" source="XgfCKwN_KVts_UlWrQIR-8">
          <mxGeometry relative="1" as="geometry">
            <mxPoint x="548" y="1242" as="targetPoint" />
          </mxGeometry>
        </mxCell>
        <mxCell id="XgfCKwN_KVts_UlWrQIR-8" value="hypothesis Tokenized" style="rounded=0;whiteSpace=wrap;html=1;" vertex="1" parent="WIyWlLk6GJQsqaUBKTNV-1">
          <mxGeometry x="488" y="1292" width="120" height="60" as="geometry" />
        </mxCell>
        <mxCell id="XgfCKwN_KVts_UlWrQIR-9" value="Numerical Vectorisation&lt;div&gt;(NER, Cosim, POS)&lt;/div&gt;" style="rounded=1;whiteSpace=wrap;html=1;" vertex="1" parent="WIyWlLk6GJQsqaUBKTNV-1">
          <mxGeometry x="-42" y="1190" width="120" height="60" as="geometry" />
        </mxCell>
        <mxCell id="XgfCKwN_KVts_UlWrQIR-16" value="Preprocessing&amp;nbsp;&lt;div&gt;and&amp;nbsp;&lt;/div&gt;&lt;div&gt;tokenization&lt;/div&gt;" style="rounded=0;whiteSpace=wrap;html=1;align=left;fillColor=#dae8fc;strokeColor=#6c8ebf;labelBackgroundColor=none;verticalAlign=top;fontSize=20;" vertex="1" parent="WIyWlLk6GJQsqaUBKTNV-1">
          <mxGeometry x="-182" y="1386" width="850" height="90" as="geometry" />
        </mxCell>
        <mxCell id="XgfCKwN_KVts_UlWrQIR-17" value="premise" style="rounded=0;whiteSpace=wrap;html=1;" vertex="1" parent="WIyWlLk6GJQsqaUBKTNV-1">
          <mxGeometry y="1401" width="232" height="60" as="geometry" />
        </mxCell>
        <mxCell id="XgfCKwN_KVts_UlWrQIR-18" value="hypothesis" style="rounded=0;whiteSpace=wrap;html=1;" vertex="1" parent="WIyWlLk6GJQsqaUBKTNV-1">
          <mxGeometry x="294" y="1401" width="238" height="60" as="geometry" />
        </mxCell>
        <mxCell id="XgfCKwN_KVts_UlWrQIR-20" value="" style="endArrow=classic;html=1;rounded=0;exitX=0.25;exitY=0;exitDx=0;exitDy=0;entryX=0.25;entryY=1;entryDx=0;entryDy=0;" edge="1" parent="WIyWlLk6GJQsqaUBKTNV-1" source="XgfCKwN_KVts_UlWrQIR-17" target="XgfCKwN_KVts_UlWrQIR-4">
          <mxGeometry width="50" height="50" relative="1" as="geometry">
            <mxPoint x="238" y="1282" as="sourcePoint" />
            <mxPoint x="288" y="1232" as="targetPoint" />
            <Array as="points">
              <mxPoint x="-12" y="1386" />
            </Array>
          </mxGeometry>
        </mxCell>
        <mxCell id="XgfCKwN_KVts_UlWrQIR-21" value="" style="endArrow=classic;html=1;rounded=0;exitX=0.25;exitY=0;exitDx=0;exitDy=0;entryX=0.75;entryY=1;entryDx=0;entryDy=0;" edge="1" parent="WIyWlLk6GJQsqaUBKTNV-1" source="XgfCKwN_KVts_UlWrQIR-18" target="XgfCKwN_KVts_UlWrQIR-4">
          <mxGeometry width="50" height="50" relative="1" as="geometry">
            <mxPoint x="238" y="1282" as="sourcePoint" />
            <mxPoint x="288" y="1232" as="targetPoint" />
            <Array as="points">
              <mxPoint x="48" y="1372" />
            </Array>
          </mxGeometry>
        </mxCell>
        <mxCell id="XgfCKwN_KVts_UlWrQIR-23" value="" style="endArrow=classic;html=1;rounded=0;exitX=0.75;exitY=0;exitDx=0;exitDy=0;entryX=0.5;entryY=1;entryDx=0;entryDy=0;" edge="1" parent="WIyWlLk6GJQsqaUBKTNV-1" source="XgfCKwN_KVts_UlWrQIR-18" target="XgfCKwN_KVts_UlWrQIR-8">
          <mxGeometry width="50" height="50" relative="1" as="geometry">
            <mxPoint x="238" y="1282" as="sourcePoint" />
            <mxPoint x="288" y="1232" as="targetPoint" />
            <Array as="points">
              <mxPoint x="546" y="1372" />
            </Array>
          </mxGeometry>
        </mxCell>
        <mxCell id="XgfCKwN_KVts_UlWrQIR-24" value="" style="endArrow=classic;html=1;rounded=0;exitX=0.75;exitY=0;exitDx=0;exitDy=0;entryX=0.5;entryY=1;entryDx=0;entryDy=0;" edge="1" parent="WIyWlLk6GJQsqaUBKTNV-1" source="XgfCKwN_KVts_UlWrQIR-17" target="XgfCKwN_KVts_UlWrQIR-6">
          <mxGeometry width="50" height="50" relative="1" as="geometry">
            <mxPoint x="196" y="1386" as="sourcePoint" />
            <mxPoint x="288" y="1232" as="targetPoint" />
            <Array as="points">
              <mxPoint x="298" y="1372" />
            </Array>
          </mxGeometry>
        </mxCell>
        <mxCell id="XgfCKwN_KVts_UlWrQIR-26" value="Premise&lt;div&gt;Glove&amp;nbsp; Emeddings&lt;/div&gt;" style="ellipse;whiteSpace=wrap;html=1;aspect=fixed;" vertex="1" parent="WIyWlLk6GJQsqaUBKTNV-1">
          <mxGeometry x="258" y="1172" width="80" height="80" as="geometry" />
        </mxCell>
        <mxCell id="XgfCKwN_KVts_UlWrQIR-27" value="&lt;div&gt;Hypothesis&lt;/div&gt;Glove Embeddings" style="ellipse;whiteSpace=wrap;html=1;aspect=fixed;" vertex="1" parent="WIyWlLk6GJQsqaUBKTNV-1">
          <mxGeometry x="508" y="1172" width="80" height="80" as="geometry" />
        </mxCell>
        <mxCell id="XgfCKwN_KVts_UlWrQIR-28" value="BILSTM&amp;nbsp;&lt;div&gt;Encoder&lt;/div&gt;" style="whiteSpace=wrap;html=1;aspect=fixed;" vertex="1" parent="WIyWlLk6GJQsqaUBKTNV-1">
          <mxGeometry x="92" y="1044" width="80" height="80" as="geometry" />
        </mxCell>
        <mxCell id="XgfCKwN_KVts_UlWrQIR-30" value="BILSTM&amp;nbsp;&lt;div&gt;Encoder&lt;/div&gt;" style="whiteSpace=wrap;html=1;aspect=fixed;" vertex="1" parent="WIyWlLk6GJQsqaUBKTNV-1">
          <mxGeometry x="342" y="1044" width="80" height="80" as="geometry" />
        </mxCell>
        <mxCell id="XgfCKwN_KVts_UlWrQIR-31" value="" style="endArrow=classic;html=1;rounded=0;exitX=0.5;exitY=0;exitDx=0;exitDy=0;entryX=0.5;entryY=1;entryDx=0;entryDy=0;" edge="1" parent="WIyWlLk6GJQsqaUBKTNV-1" source="XgfCKwN_KVts_UlWrQIR-26" target="XgfCKwN_KVts_UlWrQIR-28">
          <mxGeometry width="50" height="50" relative="1" as="geometry">
            <mxPoint x="210" y="1044" as="sourcePoint" />
            <mxPoint x="260" y="994" as="targetPoint" />
          </mxGeometry>
        </mxCell>
        <mxCell id="XgfCKwN_KVts_UlWrQIR-32" value="" style="endArrow=classic;html=1;rounded=0;exitX=0.5;exitY=0;exitDx=0;exitDy=0;entryX=0.5;entryY=1;entryDx=0;entryDy=0;" edge="1" parent="WIyWlLk6GJQsqaUBKTNV-1" source="XgfCKwN_KVts_UlWrQIR-27" target="XgfCKwN_KVts_UlWrQIR-30">
          <mxGeometry width="50" height="50" relative="1" as="geometry">
            <mxPoint x="312" y="1178" as="sourcePoint" />
            <mxPoint x="312" y="1130" as="targetPoint" />
          </mxGeometry>
        </mxCell>
        <mxCell id="XgfCKwN_KVts_UlWrQIR-36" value="" style="endArrow=classic;html=1;rounded=0;exitX=0.5;exitY=0;exitDx=0;exitDy=0;entryX=0.5;entryY=1;entryDx=0;entryDy=0;" edge="1" parent="WIyWlLk6GJQsqaUBKTNV-1" source="XgfCKwN_KVts_UlWrQIR-28" target="XgfCKwN_KVts_UlWrQIR-57">
          <mxGeometry width="50" height="50" relative="1" as="geometry">
            <mxPoint x="210" y="1044" as="sourcePoint" />
            <mxPoint x="350" y="994" as="targetPoint" />
          </mxGeometry>
        </mxCell>
        <mxCell id="XgfCKwN_KVts_UlWrQIR-37" value="" style="endArrow=classic;html=1;rounded=0;exitX=0.5;exitY=0;exitDx=0;exitDy=0;entryX=0.5;entryY=1;entryDx=0;entryDy=0;" edge="1" parent="WIyWlLk6GJQsqaUBKTNV-1" source="XgfCKwN_KVts_UlWrQIR-30" target="XgfCKwN_KVts_UlWrQIR-56">
          <mxGeometry width="50" height="50" relative="1" as="geometry">
            <mxPoint x="210" y="1044" as="sourcePoint" />
            <mxPoint x="505.5" y="998" as="targetPoint" />
          </mxGeometry>
        </mxCell>
        <mxCell id="XgfCKwN_KVts_UlWrQIR-45" value="" style="endArrow=classic;html=1;rounded=0;exitX=0.5;exitY=0;exitDx=0;exitDy=0;entryX=0.25;entryY=1;entryDx=0;entryDy=0;" edge="1" parent="WIyWlLk6GJQsqaUBKTNV-1" source="XgfCKwN_KVts_UlWrQIR-57" target="XgfCKwN_KVts_UlWrQIR-47">
          <mxGeometry width="50" height="50" relative="1" as="geometry">
            <mxPoint x="340.5" y="966" as="sourcePoint" />
            <mxPoint x="332" y="938.9999999999995" as="targetPoint" />
          </mxGeometry>
        </mxCell>
        <mxCell id="XgfCKwN_KVts_UlWrQIR-46" value="" style="endArrow=classic;html=1;rounded=0;exitX=0.5;exitY=0;exitDx=0;exitDy=0;entryX=0.75;entryY=1;entryDx=0;entryDy=0;" edge="1" parent="WIyWlLk6GJQsqaUBKTNV-1" source="XgfCKwN_KVts_UlWrQIR-56" target="XgfCKwN_KVts_UlWrQIR-47">
          <mxGeometry width="50" height="50" relative="1" as="geometry">
            <mxPoint x="505.5" y="966" as="sourcePoint" />
            <mxPoint x="525" y="938" as="targetPoint" />
          </mxGeometry>
        </mxCell>
        <mxCell id="XgfCKwN_KVts_UlWrQIR-47" value="Aligned Represention" style="rounded=0;whiteSpace=wrap;html=1;" vertex="1" parent="WIyWlLk6GJQsqaUBKTNV-1">
          <mxGeometry x="92" y="904" width="330" height="46" as="geometry" />
        </mxCell>
        <mxCell id="XgfCKwN_KVts_UlWrQIR-50" value="Concatenate" style="rounded=0;whiteSpace=wrap;html=1;" vertex="1" parent="WIyWlLk6GJQsqaUBKTNV-1">
          <mxGeometry x="279.5" y="848" width="120" height="32" as="geometry" />
        </mxCell>
        <mxCell id="XgfCKwN_KVts_UlWrQIR-51" value="Concatenate" style="rounded=0;whiteSpace=wrap;html=1;" vertex="1" parent="WIyWlLk6GJQsqaUBKTNV-1">
          <mxGeometry x="114.5" y="848" width="120" height="32" as="geometry" />
        </mxCell>
        <mxCell id="XgfCKwN_KVts_UlWrQIR-52" value="" style="endArrow=classic;html=1;rounded=0;exitX=0.25;exitY=0;exitDx=0;exitDy=0;entryX=0.5;entryY=1;entryDx=0;entryDy=0;" edge="1" parent="WIyWlLk6GJQsqaUBKTNV-1" source="XgfCKwN_KVts_UlWrQIR-47" target="XgfCKwN_KVts_UlWrQIR-51">
          <mxGeometry width="50" height="50" relative="1" as="geometry">
            <mxPoint x="355" y="952" as="sourcePoint" />
            <mxPoint x="354" y="928" as="targetPoint" />
          </mxGeometry>
        </mxCell>
        <mxCell id="XgfCKwN_KVts_UlWrQIR-53" value="" style="endArrow=classic;html=1;rounded=0;exitX=0.75;exitY=0;exitDx=0;exitDy=0;entryX=0.5;entryY=1;entryDx=0;entryDy=0;" edge="1" parent="WIyWlLk6GJQsqaUBKTNV-1" source="XgfCKwN_KVts_UlWrQIR-47" target="XgfCKwN_KVts_UlWrQIR-50">
          <mxGeometry width="50" height="50" relative="1" as="geometry">
            <mxPoint x="520" y="952" as="sourcePoint" />
            <mxPoint x="520" y="928" as="targetPoint" />
          </mxGeometry>
        </mxCell>
        <mxCell id="XgfCKwN_KVts_UlWrQIR-56" value="Self-Attention" style="rounded=0;whiteSpace=wrap;html=1;" vertex="1" parent="WIyWlLk6GJQsqaUBKTNV-1">
          <mxGeometry x="279.5" y="974" width="120" height="32" as="geometry" />
        </mxCell>
        <mxCell id="XgfCKwN_KVts_UlWrQIR-57" value="Self-Attention" style="rounded=0;whiteSpace=wrap;html=1;" vertex="1" parent="WIyWlLk6GJQsqaUBKTNV-1">
          <mxGeometry x="114.5" y="974" width="120" height="32" as="geometry" />
        </mxCell>
        <mxCell id="XgfCKwN_KVts_UlWrQIR-58" value="Dense" style="rounded=0;whiteSpace=wrap;html=1;" vertex="1" parent="WIyWlLk6GJQsqaUBKTNV-1">
          <mxGeometry x="279.5" y="788" width="120" height="32" as="geometry" />
        </mxCell>
        <mxCell id="XgfCKwN_KVts_UlWrQIR-59" value="Dense" style="rounded=0;whiteSpace=wrap;html=1;" vertex="1" parent="WIyWlLk6GJQsqaUBKTNV-1">
          <mxGeometry x="114.5" y="788" width="120" height="32" as="geometry" />
        </mxCell>
        <mxCell id="XgfCKwN_KVts_UlWrQIR-60" value="" style="endArrow=classic;html=1;rounded=0;exitX=0.5;exitY=0;exitDx=0;exitDy=0;entryX=0.5;entryY=1;entryDx=0;entryDy=0;" edge="1" parent="WIyWlLk6GJQsqaUBKTNV-1" source="XgfCKwN_KVts_UlWrQIR-51" target="XgfCKwN_KVts_UlWrQIR-59">
          <mxGeometry width="50" height="50" relative="1" as="geometry">
            <mxPoint x="294" y="932" as="sourcePoint" />
            <mxPoint x="344" y="882" as="targetPoint" />
          </mxGeometry>
        </mxCell>
        <mxCell id="XgfCKwN_KVts_UlWrQIR-61" value="" style="endArrow=classic;html=1;rounded=0;exitX=0.5;exitY=0;exitDx=0;exitDy=0;entryX=0.5;entryY=1;entryDx=0;entryDy=0;" edge="1" parent="WIyWlLk6GJQsqaUBKTNV-1" source="XgfCKwN_KVts_UlWrQIR-50" target="XgfCKwN_KVts_UlWrQIR-58">
          <mxGeometry width="50" height="50" relative="1" as="geometry">
            <mxPoint x="294" y="932" as="sourcePoint" />
            <mxPoint x="344" y="882" as="targetPoint" />
          </mxGeometry>
        </mxCell>
        <mxCell id="XgfCKwN_KVts_UlWrQIR-64" value="Inference&amp;nbsp;&lt;div&gt;Composition&lt;/div&gt;" style="rounded=0;whiteSpace=wrap;html=1;align=left;fillColor=light-dark(#FFF2CC,#724FFF);strokeColor=#d6b656;labelBackgroundColor=none;verticalAlign=top;fontSize=20;" vertex="1" parent="WIyWlLk6GJQsqaUBKTNV-1">
          <mxGeometry x="-3.5" y="708" width="521" height="57" as="geometry" />
        </mxCell>
        <mxCell id="XgfCKwN_KVts_UlWrQIR-65" value="BILSTM" style="rounded=0;whiteSpace=wrap;html=1;" vertex="1" parent="WIyWlLk6GJQsqaUBKTNV-1">
          <mxGeometry x="279.5" y="720.5" width="120" height="32" as="geometry" />
        </mxCell>
        <mxCell id="XgfCKwN_KVts_UlWrQIR-66" value="BILSTM" style="rounded=0;whiteSpace=wrap;html=1;" vertex="1" parent="WIyWlLk6GJQsqaUBKTNV-1">
          <mxGeometry x="114.5" y="720.5" width="120" height="32" as="geometry" />
        </mxCell>
        <mxCell id="XgfCKwN_KVts_UlWrQIR-67" value="" style="endArrow=classic;html=1;rounded=0;exitX=0.5;exitY=0;exitDx=0;exitDy=0;entryX=0.5;entryY=1;entryDx=0;entryDy=0;" edge="1" parent="WIyWlLk6GJQsqaUBKTNV-1" source="XgfCKwN_KVts_UlWrQIR-59" target="XgfCKwN_KVts_UlWrQIR-66">
          <mxGeometry width="50" height="50" relative="1" as="geometry">
            <mxPoint x="322" y="764" as="sourcePoint" />
            <mxPoint x="372" y="714" as="targetPoint" />
          </mxGeometry>
        </mxCell>
        <mxCell id="XgfCKwN_KVts_UlWrQIR-68" value="" style="endArrow=classic;html=1;rounded=0;exitX=0.5;exitY=0;exitDx=0;exitDy=0;entryX=0.5;entryY=1;entryDx=0;entryDy=0;" edge="1" parent="WIyWlLk6GJQsqaUBKTNV-1" source="XgfCKwN_KVts_UlWrQIR-58" target="XgfCKwN_KVts_UlWrQIR-65">
          <mxGeometry width="50" height="50" relative="1" as="geometry">
            <mxPoint x="322" y="764" as="sourcePoint" />
            <mxPoint x="372" y="714" as="targetPoint" />
          </mxGeometry>
        </mxCell>
        <mxCell id="XgfCKwN_KVts_UlWrQIR-76" value="" style="endArrow=classic;html=1;rounded=0;exitX=0.25;exitY=0;exitDx=0;exitDy=0;entryX=0.25;entryY=1;entryDx=0;entryDy=0;" edge="1" parent="WIyWlLk6GJQsqaUBKTNV-1" source="XgfCKwN_KVts_UlWrQIR-66" target="XgfCKwN_KVts_UlWrQIR-70">
          <mxGeometry width="50" height="50" relative="1" as="geometry">
            <mxPoint x="350" y="750" as="sourcePoint" />
            <mxPoint x="400" y="700" as="targetPoint" />
          </mxGeometry>
        </mxCell>
        <mxCell id="XgfCKwN_KVts_UlWrQIR-77" value="" style="endArrow=classic;html=1;rounded=0;exitX=0.75;exitY=0;exitDx=0;exitDy=0;entryX=0.25;entryY=1;entryDx=0;entryDy=0;" edge="1" parent="WIyWlLk6GJQsqaUBKTNV-1" source="XgfCKwN_KVts_UlWrQIR-66" target="XgfCKwN_KVts_UlWrQIR-71">
          <mxGeometry width="50" height="50" relative="1" as="geometry">
            <mxPoint x="350" y="750" as="sourcePoint" />
            <mxPoint x="400" y="700" as="targetPoint" />
          </mxGeometry>
        </mxCell>
        <mxCell id="XgfCKwN_KVts_UlWrQIR-78" value="" style="endArrow=classic;html=1;rounded=0;exitX=0.25;exitY=0;exitDx=0;exitDy=0;entryX=0.75;entryY=1;entryDx=0;entryDy=0;" edge="1" parent="WIyWlLk6GJQsqaUBKTNV-1" source="XgfCKwN_KVts_UlWrQIR-65" target="XgfCKwN_KVts_UlWrQIR-70">
          <mxGeometry width="50" height="50" relative="1" as="geometry">
            <mxPoint x="350" y="750" as="sourcePoint" />
            <mxPoint x="400" y="700" as="targetPoint" />
          </mxGeometry>
        </mxCell>
        <mxCell id="XgfCKwN_KVts_UlWrQIR-86" value="" style="rounded=0;whiteSpace=wrap;html=1;align=left;fillColor=light-dark(#FFF2CC,#724FFF);strokeColor=#d6b656;labelBackgroundColor=none;verticalAlign=top;fontSize=20;" vertex="1" parent="WIyWlLk6GJQsqaUBKTNV-1">
          <mxGeometry x="-28.25" y="630.5" width="569" height="57" as="geometry" />
        </mxCell>
        <mxCell id="XgfCKwN_KVts_UlWrQIR-79" value="" style="endArrow=classic;html=1;rounded=0;exitX=0.75;exitY=0;exitDx=0;exitDy=0;entryX=0.75;entryY=1;entryDx=0;entryDy=0;" edge="1" parent="WIyWlLk6GJQsqaUBKTNV-1" source="XgfCKwN_KVts_UlWrQIR-65" target="XgfCKwN_KVts_UlWrQIR-71">
          <mxGeometry width="50" height="50" relative="1" as="geometry">
            <mxPoint x="350" y="750" as="sourcePoint" />
            <mxPoint x="400" y="700" as="targetPoint" />
          </mxGeometry>
        </mxCell>
        <mxCell id="XgfCKwN_KVts_UlWrQIR-81" value="&lt;font&gt;Concatenate&lt;/font&gt;" style="rounded=0;whiteSpace=wrap;html=1;" vertex="1" parent="WIyWlLk6GJQsqaUBKTNV-1">
          <mxGeometry x="104.5" y="554" width="303.5" height="46" as="geometry" />
        </mxCell>
        <mxCell id="XgfCKwN_KVts_UlWrQIR-82" value="" style="endArrow=classic;html=1;rounded=0;exitX=0.5;exitY=0;exitDx=0;exitDy=0;entryX=0.25;entryY=1;entryDx=0;entryDy=0;" edge="1" parent="WIyWlLk6GJQsqaUBKTNV-1" source="XgfCKwN_KVts_UlWrQIR-70" target="XgfCKwN_KVts_UlWrQIR-81">
          <mxGeometry width="50" height="50" relative="1" as="geometry">
            <mxPoint x="350" y="750" as="sourcePoint" />
            <mxPoint x="400" y="700" as="targetPoint" />
          </mxGeometry>
        </mxCell>
        <mxCell id="XgfCKwN_KVts_UlWrQIR-83" value="" style="endArrow=classic;html=1;rounded=0;exitX=0.5;exitY=0;exitDx=0;exitDy=0;entryX=0.75;entryY=1;entryDx=0;entryDy=0;" edge="1" parent="WIyWlLk6GJQsqaUBKTNV-1" source="XgfCKwN_KVts_UlWrQIR-71" target="XgfCKwN_KVts_UlWrQIR-81">
          <mxGeometry width="50" height="50" relative="1" as="geometry">
            <mxPoint x="350" y="750" as="sourcePoint" />
            <mxPoint x="400" y="700" as="targetPoint" />
          </mxGeometry>
        </mxCell>
        <mxCell id="XgfCKwN_KVts_UlWrQIR-84" value="" style="endArrow=classic;html=1;rounded=0;exitX=0.5;exitY=0;exitDx=0;exitDy=0;entryX=0;entryY=0.5;entryDx=0;entryDy=0;" edge="1" parent="WIyWlLk6GJQsqaUBKTNV-1" source="XgfCKwN_KVts_UlWrQIR-9" target="XgfCKwN_KVts_UlWrQIR-81">
          <mxGeometry width="50" height="50" relative="1" as="geometry">
            <mxPoint x="-164" y="1182" as="sourcePoint" />
            <mxPoint x="22" y="462" as="targetPoint" />
            <Array as="points">
              <mxPoint x="-70" y="1106" />
              <mxPoint x="-70" y="577" />
            </Array>
          </mxGeometry>
        </mxCell>
        <mxCell id="XgfCKwN_KVts_UlWrQIR-85" value="Classification Head" style="rounded=0;whiteSpace=wrap;html=1;align=left;fillColor=light-dark(#FFE6CC,#07360F);strokeColor=#d79b00;labelBackgroundColor=none;verticalAlign=top;fontSize=20;" vertex="1" parent="WIyWlLk6GJQsqaUBKTNV-1">
          <mxGeometry x="-182" y="420" width="850" height="104" as="geometry" />
        </mxCell>
        <mxCell id="XgfCKwN_KVts_UlWrQIR-70" value="Avarge Pooling" style="rounded=0;whiteSpace=wrap;html=1;" vertex="1" parent="WIyWlLk6GJQsqaUBKTNV-1">
          <mxGeometry x="47.56999999999999" y="638" width="192" height="42" as="geometry" />
        </mxCell>
        <mxCell id="XgfCKwN_KVts_UlWrQIR-71" value="Max Pooling" style="rounded=0;whiteSpace=wrap;html=1;" vertex="1" parent="WIyWlLk6GJQsqaUBKTNV-1">
          <mxGeometry x="274.44" y="638" width="192" height="42" as="geometry" />
        </mxCell>
        <mxCell id="XgfCKwN_KVts_UlWrQIR-87" value="&lt;font style=&quot;font-size: 20px;&quot;&gt;Pooling&lt;/font&gt;" style="text;html=1;align=center;verticalAlign=middle;whiteSpace=wrap;rounded=0;" vertex="1" parent="WIyWlLk6GJQsqaUBKTNV-1">
          <mxGeometry x="-20" y="644" width="60" height="30" as="geometry" />
        </mxCell>
        <mxCell id="XgfCKwN_KVts_UlWrQIR-88" value="Output" style="rounded=0;whiteSpace=wrap;html=1;align=left;fillColor=#fad9d5;strokeColor=#ae4132;labelBackgroundColor=none;verticalAlign=top;fontSize=20;" vertex="1" parent="WIyWlLk6GJQsqaUBKTNV-1">
          <mxGeometry x="-182" y="336" width="850" height="78" as="geometry" />
        </mxCell>
        <mxCell id="XgfCKwN_KVts_UlWrQIR-89" value="&lt;font style=&quot;font-size: 24px;&quot;&gt;[0,1]&lt;/font&gt;" style="text;html=1;align=center;verticalAlign=middle;resizable=0;points=[];autosize=1;strokeColor=none;fillColor=none;" vertex="1" parent="WIyWlLk6GJQsqaUBKTNV-1">
          <mxGeometry x="208" y="355" width="70" height="40" as="geometry" />
        </mxCell>
        <mxCell id="XgfCKwN_KVts_UlWrQIR-94" value="Classification Head&lt;div&gt;[Relu]&lt;/div&gt;" style="rounded=0;whiteSpace=wrap;html=1;align=left;fillColor=#fad9d5;strokeColor=#ae4132;labelBackgroundColor=none;verticalAlign=top;fontSize=20;direction=south;" vertex="1" parent="WIyWlLk6GJQsqaUBKTNV-1">
          <mxGeometry x="28" y="2205" width="280" height="584" as="geometry" />
        </mxCell>
        <mxCell id="XgfCKwN_KVts_UlWrQIR-95" value="Output&lt;div&gt;[Sigmoid]&lt;/div&gt;" style="rounded=0;whiteSpace=wrap;html=1;align=left;fillColor=#ffcc99;strokeColor=#36393d;labelBackgroundColor=none;verticalAlign=top;fontSize=20;direction=south;" vertex="1" parent="WIyWlLk6GJQsqaUBKTNV-1">
          <mxGeometry x="323.5" y="2366" width="98.5" height="282.5" as="geometry" />
        </mxCell>
        <mxCell id="XgfCKwN_KVts_UlWrQIR-152" style="edgeStyle=orthogonalEdgeStyle;rounded=0;orthogonalLoop=1;jettySize=auto;html=1;exitX=0.5;exitY=0;exitDx=0;exitDy=0;entryX=0.75;entryY=1;entryDx=0;entryDy=0;" edge="1" parent="WIyWlLk6GJQsqaUBKTNV-1" source="XgfCKwN_KVts_UlWrQIR-112" target="XgfCKwN_KVts_UlWrQIR-117">
          <mxGeometry relative="1" as="geometry" />
        </mxCell>
        <mxCell id="XgfCKwN_KVts_UlWrQIR-112" value="Self-Attention" style="rounded=0;whiteSpace=wrap;html=1;direction=south;horizontal=0;fontSize=18;" vertex="1" parent="WIyWlLk6GJQsqaUBKTNV-1">
          <mxGeometry x="-641" y="2542" width="32" height="120" as="geometry" />
        </mxCell>
        <mxCell id="XgfCKwN_KVts_UlWrQIR-113" value="Self-Attention" style="rounded=0;whiteSpace=wrap;html=1;direction=south;horizontal=0;fontSize=18;" vertex="1" parent="WIyWlLk6GJQsqaUBKTNV-1">
          <mxGeometry x="-641" y="2366" width="32" height="120" as="geometry" />
        </mxCell>
        <mxCell id="XgfCKwN_KVts_UlWrQIR-151" style="edgeStyle=orthogonalEdgeStyle;rounded=0;orthogonalLoop=1;jettySize=auto;html=1;exitX=0.5;exitY=0;exitDx=0;exitDy=0;entryX=0.5;entryY=1;entryDx=0;entryDy=0;" edge="1" parent="WIyWlLk6GJQsqaUBKTNV-1" source="XgfCKwN_KVts_UlWrQIR-114" target="XgfCKwN_KVts_UlWrQIR-112">
          <mxGeometry relative="1" as="geometry" />
        </mxCell>
        <mxCell id="XgfCKwN_KVts_UlWrQIR-114" value="BILSTM" style="rounded=0;whiteSpace=wrap;html=1;direction=south;horizontal=0;fontSize=18;" vertex="1" parent="WIyWlLk6GJQsqaUBKTNV-1">
          <mxGeometry x="-728" y="2542" width="32" height="120" as="geometry" />
        </mxCell>
        <mxCell id="XgfCKwN_KVts_UlWrQIR-150" style="edgeStyle=orthogonalEdgeStyle;rounded=0;orthogonalLoop=1;jettySize=auto;html=1;exitX=0.5;exitY=0;exitDx=0;exitDy=0;entryX=0.5;entryY=1;entryDx=0;entryDy=0;" edge="1" parent="WIyWlLk6GJQsqaUBKTNV-1" source="XgfCKwN_KVts_UlWrQIR-115" target="XgfCKwN_KVts_UlWrQIR-113">
          <mxGeometry relative="1" as="geometry" />
        </mxCell>
        <mxCell id="XgfCKwN_KVts_UlWrQIR-115" value="BILSTM" style="rounded=0;whiteSpace=wrap;html=1;direction=south;horizontal=0;fontSize=18;" vertex="1" parent="WIyWlLk6GJQsqaUBKTNV-1">
          <mxGeometry x="-725" y="2366" width="32" height="120" as="geometry" />
        </mxCell>
        <mxCell id="XgfCKwN_KVts_UlWrQIR-155" style="edgeStyle=orthogonalEdgeStyle;rounded=0;orthogonalLoop=1;jettySize=auto;html=1;exitX=0.75;exitY=0;exitDx=0;exitDy=0;entryX=0.5;entryY=1;entryDx=0;entryDy=0;" edge="1" parent="WIyWlLk6GJQsqaUBKTNV-1" source="XgfCKwN_KVts_UlWrQIR-117" target="XgfCKwN_KVts_UlWrQIR-125">
          <mxGeometry relative="1" as="geometry" />
        </mxCell>
        <mxCell id="XgfCKwN_KVts_UlWrQIR-157" style="edgeStyle=orthogonalEdgeStyle;rounded=0;orthogonalLoop=1;jettySize=auto;html=1;exitX=0.25;exitY=0;exitDx=0;exitDy=0;" edge="1" parent="WIyWlLk6GJQsqaUBKTNV-1">
          <mxGeometry relative="1" as="geometry">
            <mxPoint x="-518" y="2426.179999999999" as="sourcePoint" />
            <mxPoint x="-490" y="2425.8" as="targetPoint" />
          </mxGeometry>
        </mxCell>
        <mxCell id="XgfCKwN_KVts_UlWrQIR-117" value="Aligned Represention" style="rounded=0;whiteSpace=wrap;html=1;direction=south;horizontal=0;fontSize=18;" vertex="1" parent="WIyWlLk6GJQsqaUBKTNV-1">
          <mxGeometry x="-560" y="2335.75" width="42" height="356" as="geometry" />
        </mxCell>
        <mxCell id="XgfCKwN_KVts_UlWrQIR-159" style="edgeStyle=orthogonalEdgeStyle;rounded=0;orthogonalLoop=1;jettySize=auto;html=1;exitX=0.5;exitY=0;exitDx=0;exitDy=0;entryX=0.5;entryY=1;entryDx=0;entryDy=0;" edge="1" parent="WIyWlLk6GJQsqaUBKTNV-1" source="XgfCKwN_KVts_UlWrQIR-125" target="XgfCKwN_KVts_UlWrQIR-133">
          <mxGeometry relative="1" as="geometry" />
        </mxCell>
        <mxCell id="XgfCKwN_KVts_UlWrQIR-125" value="Concatenate" style="rounded=0;whiteSpace=wrap;html=1;direction=south;horizontal=0;fontSize=18;" vertex="1" parent="WIyWlLk6GJQsqaUBKTNV-1">
          <mxGeometry x="-490" y="2542" width="32" height="120" as="geometry" />
        </mxCell>
        <mxCell id="XgfCKwN_KVts_UlWrQIR-158" style="edgeStyle=orthogonalEdgeStyle;rounded=0;orthogonalLoop=1;jettySize=auto;html=1;exitX=0.5;exitY=0;exitDx=0;exitDy=0;entryX=0.5;entryY=1;entryDx=0;entryDy=0;" edge="1" parent="WIyWlLk6GJQsqaUBKTNV-1" source="XgfCKwN_KVts_UlWrQIR-126" target="XgfCKwN_KVts_UlWrQIR-134">
          <mxGeometry relative="1" as="geometry" />
        </mxCell>
        <mxCell id="XgfCKwN_KVts_UlWrQIR-126" value="Concatenate" style="rounded=0;whiteSpace=wrap;html=1;horizontal=0;direction=south;fontSize=18;" vertex="1" parent="WIyWlLk6GJQsqaUBKTNV-1">
          <mxGeometry x="-490" y="2360" width="32" height="120" as="geometry" />
        </mxCell>
        <mxCell id="XgfCKwN_KVts_UlWrQIR-130" value="Inference&amp;nbsp;&lt;div&gt;Composition&lt;/div&gt;" style="rounded=0;whiteSpace=wrap;html=1;align=center;fillColor=#76608a;strokeColor=#432D57;labelBackgroundColor=none;verticalAlign=top;fontSize=20;direction=south;horizontal=1;fontColor=#ffffff;" vertex="1" parent="WIyWlLk6GJQsqaUBKTNV-1">
          <mxGeometry x="-308" y="2264.5" width="126" height="521" as="geometry" />
        </mxCell>
        <mxCell id="XgfCKwN_KVts_UlWrQIR-131" value="Pooling" style="rounded=0;whiteSpace=wrap;html=1;align=center;fillColor=#76608a;strokeColor=#432D57;labelBackgroundColor=none;verticalAlign=top;fontSize=20;horizontal=1;direction=south;fontColor=#ffffff;" vertex="1" parent="WIyWlLk6GJQsqaUBKTNV-1">
          <mxGeometry x="-169" y="2240.5" width="85" height="569" as="geometry" />
        </mxCell>
        <mxCell id="XgfCKwN_KVts_UlWrQIR-179" style="edgeStyle=orthogonalEdgeStyle;rounded=0;orthogonalLoop=1;jettySize=auto;html=1;exitX=0.5;exitY=0;exitDx=0;exitDy=0;entryX=0.5;entryY=1;entryDx=0;entryDy=0;" edge="1" parent="WIyWlLk6GJQsqaUBKTNV-1" source="XgfCKwN_KVts_UlWrQIR-132" target="XgfCKwN_KVts_UlWrQIR-175">
          <mxGeometry relative="1" as="geometry" />
        </mxCell>
        <mxCell id="XgfCKwN_KVts_UlWrQIR-132" value="&lt;font&gt;Concatenate&lt;/font&gt;" style="rounded=0;whiteSpace=wrap;html=1;direction=south;horizontal=0;fontSize=18;" vertex="1" parent="WIyWlLk6GJQsqaUBKTNV-1">
          <mxGeometry x="-47" y="2360" width="46" height="303.5" as="geometry" />
        </mxCell>
        <mxCell id="XgfCKwN_KVts_UlWrQIR-160" style="edgeStyle=orthogonalEdgeStyle;rounded=0;orthogonalLoop=1;jettySize=auto;html=1;exitX=0.5;exitY=0;exitDx=0;exitDy=0;entryX=0.5;entryY=1;entryDx=0;entryDy=0;" edge="1" parent="WIyWlLk6GJQsqaUBKTNV-1" source="XgfCKwN_KVts_UlWrQIR-133" target="XgfCKwN_KVts_UlWrQIR-135">
          <mxGeometry relative="1" as="geometry" />
        </mxCell>
        <mxCell id="XgfCKwN_KVts_UlWrQIR-133" value="Dense" style="rounded=0;whiteSpace=wrap;html=1;direction=south;horizontal=0;fontSize=18;" vertex="1" parent="WIyWlLk6GJQsqaUBKTNV-1">
          <mxGeometry x="-387" y="2542" width="32" height="120" as="geometry" />
        </mxCell>
        <mxCell id="XgfCKwN_KVts_UlWrQIR-161" style="edgeStyle=orthogonalEdgeStyle;rounded=0;orthogonalLoop=1;jettySize=auto;html=1;exitX=0.5;exitY=0;exitDx=0;exitDy=0;entryX=0.5;entryY=1;entryDx=0;entryDy=0;" edge="1" parent="WIyWlLk6GJQsqaUBKTNV-1" source="XgfCKwN_KVts_UlWrQIR-134" target="XgfCKwN_KVts_UlWrQIR-136">
          <mxGeometry relative="1" as="geometry" />
        </mxCell>
        <mxCell id="XgfCKwN_KVts_UlWrQIR-134" value="Dense" style="rounded=0;whiteSpace=wrap;html=1;direction=south;horizontal=0;fontSize=18;" vertex="1" parent="WIyWlLk6GJQsqaUBKTNV-1">
          <mxGeometry x="-387" y="2360" width="32" height="120" as="geometry" />
        </mxCell>
        <mxCell id="XgfCKwN_KVts_UlWrQIR-135" value="BILSTM" style="rounded=0;whiteSpace=wrap;html=1;direction=south;horizontal=0;fontSize=18;" vertex="1" parent="WIyWlLk6GJQsqaUBKTNV-1">
          <mxGeometry x="-261" y="2542" width="32" height="120" as="geometry" />
        </mxCell>
        <mxCell id="XgfCKwN_KVts_UlWrQIR-136" value="BILSTM" style="rounded=0;whiteSpace=wrap;html=1;direction=south;horizontal=0;fontSize=18;" vertex="1" parent="WIyWlLk6GJQsqaUBKTNV-1">
          <mxGeometry x="-261" y="2360" width="32" height="120" as="geometry" />
        </mxCell>
        <mxCell id="XgfCKwN_KVts_UlWrQIR-137" value="Avarge Pooling" style="rounded=0;whiteSpace=wrap;html=1;horizontal=0;direction=south;textShadow=1;fontSize=18;" vertex="1" parent="WIyWlLk6GJQsqaUBKTNV-1">
          <mxGeometry x="-147.5" y="2310" width="42" height="192" as="geometry" />
        </mxCell>
        <mxCell id="XgfCKwN_KVts_UlWrQIR-138" value="Max Pooling" style="rounded=0;whiteSpace=wrap;html=1;horizontal=0;direction=south;textShadow=1;fontSize=18;" vertex="1" parent="WIyWlLk6GJQsqaUBKTNV-1">
          <mxGeometry x="-147.5" y="2534" width="42" height="192" as="geometry" />
        </mxCell>
        <mxCell id="XgfCKwN_KVts_UlWrQIR-145" style="edgeStyle=orthogonalEdgeStyle;rounded=0;orthogonalLoop=1;jettySize=auto;html=1;exitX=0.5;exitY=0;exitDx=0;exitDy=0;entryX=0;entryY=0.5;entryDx=0;entryDy=0;" edge="1" parent="WIyWlLk6GJQsqaUBKTNV-1" source="XgfCKwN_KVts_UlWrQIR-104" target="XgfCKwN_KVts_UlWrQIR-105">
          <mxGeometry relative="1" as="geometry" />
        </mxCell>
        <mxCell id="XgfCKwN_KVts_UlWrQIR-146" style="edgeStyle=orthogonalEdgeStyle;rounded=0;orthogonalLoop=1;jettySize=auto;html=1;exitX=0.5;exitY=0;exitDx=0;exitDy=0;entryX=0;entryY=0.5;entryDx=0;entryDy=0;" edge="1" parent="WIyWlLk6GJQsqaUBKTNV-1" source="XgfCKwN_KVts_UlWrQIR-101" target="XgfCKwN_KVts_UlWrQIR-106">
          <mxGeometry relative="1" as="geometry" />
        </mxCell>
        <mxCell id="XgfCKwN_KVts_UlWrQIR-147" style="edgeStyle=orthogonalEdgeStyle;rounded=0;orthogonalLoop=1;jettySize=auto;html=1;exitX=0.5;exitY=0;exitDx=0;exitDy=0;entryX=0;entryY=0.5;entryDx=0;entryDy=0;" edge="1" parent="WIyWlLk6GJQsqaUBKTNV-1" source="XgfCKwN_KVts_UlWrQIR-103" target="XgfCKwN_KVts_UlWrQIR-107">
          <mxGeometry relative="1" as="geometry" />
        </mxCell>
        <mxCell id="XgfCKwN_KVts_UlWrQIR-173" style="edgeStyle=orthogonalEdgeStyle;rounded=0;orthogonalLoop=1;jettySize=auto;html=1;exitX=1;exitY=0.5;exitDx=0;exitDy=0;entryX=0;entryY=0.5;entryDx=0;entryDy=0;" edge="1" parent="WIyWlLk6GJQsqaUBKTNV-1" source="XgfCKwN_KVts_UlWrQIR-105" target="XgfCKwN_KVts_UlWrQIR-132">
          <mxGeometry relative="1" as="geometry">
            <Array as="points">
              <mxPoint x="-742" y="2329" />
              <mxPoint x="-742" y="2212" />
              <mxPoint x="-24" y="2212" />
            </Array>
          </mxGeometry>
        </mxCell>
        <mxCell id="XgfCKwN_KVts_UlWrQIR-105" value="Numerical Vectorisation&lt;div&gt;(NER, Cosim, POS)&lt;/div&gt;" style="rounded=1;whiteSpace=wrap;html=1;fontSize=18;" vertex="1" parent="WIyWlLk6GJQsqaUBKTNV-1">
          <mxGeometry x="-931" y="2286.75" width="126" height="81.25" as="geometry" />
        </mxCell>
        <mxCell id="XgfCKwN_KVts_UlWrQIR-148" style="edgeStyle=orthogonalEdgeStyle;rounded=0;orthogonalLoop=1;jettySize=auto;html=1;exitX=1;exitY=0.5;exitDx=0;exitDy=0;entryX=0.5;entryY=1;entryDx=0;entryDy=0;" edge="1" parent="WIyWlLk6GJQsqaUBKTNV-1" source="XgfCKwN_KVts_UlWrQIR-106" target="XgfCKwN_KVts_UlWrQIR-115">
          <mxGeometry relative="1" as="geometry" />
        </mxCell>
        <mxCell id="XgfCKwN_KVts_UlWrQIR-106" value="Premise&lt;div&gt;Glove&amp;nbsp; Emeddings&lt;/div&gt;" style="ellipse;whiteSpace=wrap;html=1;aspect=fixed;fontSize=18;" vertex="1" parent="WIyWlLk6GJQsqaUBKTNV-1">
          <mxGeometry x="-920.5" y="2442.5" width="105" height="105" as="geometry" />
        </mxCell>
        <mxCell id="XgfCKwN_KVts_UlWrQIR-149" style="edgeStyle=orthogonalEdgeStyle;rounded=0;orthogonalLoop=1;jettySize=auto;html=1;exitX=1;exitY=0.5;exitDx=0;exitDy=0;entryX=0.5;entryY=1;entryDx=0;entryDy=0;" edge="1" parent="WIyWlLk6GJQsqaUBKTNV-1" source="XgfCKwN_KVts_UlWrQIR-107" target="XgfCKwN_KVts_UlWrQIR-114">
          <mxGeometry relative="1" as="geometry" />
        </mxCell>
        <mxCell id="XgfCKwN_KVts_UlWrQIR-107" value="&lt;div&gt;Hypothesis&lt;/div&gt;Glove Embeddings" style="ellipse;whiteSpace=wrap;html=1;aspect=fixed;fontSize=18;" vertex="1" parent="WIyWlLk6GJQsqaUBKTNV-1">
          <mxGeometry x="-920.5" y="2612.5" width="104.25" height="104.25" as="geometry" />
        </mxCell>
        <mxCell id="XgfCKwN_KVts_UlWrQIR-156" style="edgeStyle=orthogonalEdgeStyle;rounded=0;orthogonalLoop=1;jettySize=auto;html=1;exitX=0.5;exitY=0;exitDx=0;exitDy=0;entryX=0.255;entryY=1.073;entryDx=0;entryDy=0;entryPerimeter=0;" edge="1" parent="WIyWlLk6GJQsqaUBKTNV-1" source="XgfCKwN_KVts_UlWrQIR-113">
          <mxGeometry relative="1" as="geometry">
            <mxPoint x="-605" y="2426" as="sourcePoint" />
            <mxPoint x="-559.0659999999996" y="2426.53" as="targetPoint" />
            <Array as="points">
              <mxPoint x="-584" y="2426" />
            </Array>
          </mxGeometry>
        </mxCell>
        <mxCell id="XgfCKwN_KVts_UlWrQIR-163" value="" style="endArrow=classic;html=1;rounded=0;exitX=0.5;exitY=0;exitDx=0;exitDy=0;entryX=0.5;entryY=1;entryDx=0;entryDy=0;" edge="1" parent="WIyWlLk6GJQsqaUBKTNV-1" source="XgfCKwN_KVts_UlWrQIR-136" target="XgfCKwN_KVts_UlWrQIR-137">
          <mxGeometry width="50" height="50" relative="1" as="geometry">
            <mxPoint x="-140" y="2472" as="sourcePoint" />
            <mxPoint x="-90" y="2422" as="targetPoint" />
          </mxGeometry>
        </mxCell>
        <mxCell id="XgfCKwN_KVts_UlWrQIR-164" value="" style="endArrow=classic;html=1;rounded=0;exitX=0.5;exitY=0;exitDx=0;exitDy=0;entryX=0.5;entryY=1;entryDx=0;entryDy=0;" edge="1" parent="WIyWlLk6GJQsqaUBKTNV-1" source="XgfCKwN_KVts_UlWrQIR-135" target="XgfCKwN_KVts_UlWrQIR-138">
          <mxGeometry width="50" height="50" relative="1" as="geometry">
            <mxPoint x="-140" y="2472" as="sourcePoint" />
            <mxPoint x="-90" y="2422" as="targetPoint" />
          </mxGeometry>
        </mxCell>
        <mxCell id="XgfCKwN_KVts_UlWrQIR-165" value="" style="endArrow=classic;html=1;rounded=0;exitX=0.5;exitY=0;exitDx=0;exitDy=0;entryX=0.25;entryY=1;entryDx=0;entryDy=0;" edge="1" parent="WIyWlLk6GJQsqaUBKTNV-1" source="XgfCKwN_KVts_UlWrQIR-137" target="XgfCKwN_KVts_UlWrQIR-132">
          <mxGeometry width="50" height="50" relative="1" as="geometry">
            <mxPoint x="-140" y="2472" as="sourcePoint" />
            <mxPoint x="-90" y="2422" as="targetPoint" />
          </mxGeometry>
        </mxCell>
        <mxCell id="XgfCKwN_KVts_UlWrQIR-166" value="" style="endArrow=classic;html=1;rounded=0;exitX=0.5;exitY=0;exitDx=0;exitDy=0;entryX=0.761;entryY=1.022;entryDx=0;entryDy=0;entryPerimeter=0;" edge="1" parent="WIyWlLk6GJQsqaUBKTNV-1" source="XgfCKwN_KVts_UlWrQIR-138" target="XgfCKwN_KVts_UlWrQIR-132">
          <mxGeometry width="50" height="50" relative="1" as="geometry">
            <mxPoint x="-140" y="2472" as="sourcePoint" />
            <mxPoint x="-90" y="2422" as="targetPoint" />
          </mxGeometry>
        </mxCell>
        <mxCell id="XgfCKwN_KVts_UlWrQIR-167" value="" style="endArrow=classic;html=1;rounded=0;exitX=0.25;exitY=0;exitDx=0;exitDy=0;entryX=0.25;entryY=1;entryDx=0;entryDy=0;" edge="1" parent="WIyWlLk6GJQsqaUBKTNV-1" source="XgfCKwN_KVts_UlWrQIR-96" target="XgfCKwN_KVts_UlWrQIR-104">
          <mxGeometry width="50" height="50" relative="1" as="geometry">
            <mxPoint x="-1106" y="2318" as="sourcePoint" />
            <mxPoint x="-1056" y="2268" as="targetPoint" />
            <Array as="points">
              <mxPoint x="-1078" y="2299" />
            </Array>
          </mxGeometry>
        </mxCell>
        <mxCell id="XgfCKwN_KVts_UlWrQIR-170" value="" style="endArrow=classic;html=1;rounded=0;entryX=0.75;entryY=1;entryDx=0;entryDy=0;exitX=0.25;exitY=0;exitDx=0;exitDy=0;" edge="1" parent="WIyWlLk6GJQsqaUBKTNV-1" source="XgfCKwN_KVts_UlWrQIR-98" target="XgfCKwN_KVts_UlWrQIR-104">
          <mxGeometry width="50" height="50" relative="1" as="geometry">
            <mxPoint x="-1106" y="2430" as="sourcePoint" />
            <mxPoint x="-1056" y="2380" as="targetPoint" />
            <Array as="points">
              <mxPoint x="-1078" y="2358" />
            </Array>
          </mxGeometry>
        </mxCell>
        <mxCell id="XgfCKwN_KVts_UlWrQIR-171" value="" style="endArrow=classic;html=1;rounded=0;exitX=0.75;exitY=0;exitDx=0;exitDy=0;entryX=0.5;entryY=1;entryDx=0;entryDy=0;" edge="1" parent="WIyWlLk6GJQsqaUBKTNV-1">
          <mxGeometry width="50" height="50" relative="1" as="geometry">
            <mxPoint x="-1146" y="2447.5" as="sourcePoint" />
            <mxPoint x="-1052" y="2495" as="targetPoint" />
            <Array as="points">
              <mxPoint x="-1078" y="2495" />
            </Array>
          </mxGeometry>
        </mxCell>
        <mxCell id="XgfCKwN_KVts_UlWrQIR-172" value="" style="endArrow=classic;html=1;rounded=0;exitX=0.75;exitY=0;exitDx=0;exitDy=0;entryX=0.5;entryY=1;entryDx=0;entryDy=0;" edge="1" parent="WIyWlLk6GJQsqaUBKTNV-1" source="XgfCKwN_KVts_UlWrQIR-98" target="XgfCKwN_KVts_UlWrQIR-103">
          <mxGeometry width="50" height="50" relative="1" as="geometry">
            <mxPoint x="-1106" y="2612" as="sourcePoint" />
            <mxPoint x="-1056" y="2562" as="targetPoint" />
            <Array as="points">
              <mxPoint x="-1078" y="2664" />
            </Array>
          </mxGeometry>
        </mxCell>
        <mxCell id="XgfCKwN_KVts_UlWrQIR-175" value="Desne" style="rounded=0;whiteSpace=wrap;html=1;direction=south;horizontal=0;fontSize=18;" vertex="1" parent="WIyWlLk6GJQsqaUBKTNV-1">
          <mxGeometry x="58.43" y="2407.75" width="46" height="208" as="geometry" />
        </mxCell>
        <mxCell id="XgfCKwN_KVts_UlWrQIR-185" style="edgeStyle=orthogonalEdgeStyle;rounded=0;orthogonalLoop=1;jettySize=auto;html=1;exitX=0.5;exitY=0;exitDx=0;exitDy=0;entryX=0.5;entryY=1;entryDx=0;entryDy=0;" edge="1" parent="WIyWlLk6GJQsqaUBKTNV-1" source="XgfCKwN_KVts_UlWrQIR-176" target="XgfCKwN_KVts_UlWrQIR-184">
          <mxGeometry relative="1" as="geometry" />
        </mxCell>
        <mxCell id="XgfCKwN_KVts_UlWrQIR-176" value="Dense" style="rounded=0;whiteSpace=wrap;html=1;direction=south;horizontal=0;fontSize=18;" vertex="1" parent="WIyWlLk6GJQsqaUBKTNV-1">
          <mxGeometry x="239.57" y="2448.75" width="46" height="130" as="geometry" />
        </mxCell>
        <mxCell id="XgfCKwN_KVts_UlWrQIR-181" style="edgeStyle=orthogonalEdgeStyle;rounded=0;orthogonalLoop=1;jettySize=auto;html=1;exitX=1;exitY=0.5;exitDx=0;exitDy=0;entryX=0.5;entryY=1;entryDx=0;entryDy=0;" edge="1" parent="WIyWlLk6GJQsqaUBKTNV-1" source="XgfCKwN_KVts_UlWrQIR-178" target="XgfCKwN_KVts_UlWrQIR-176">
          <mxGeometry relative="1" as="geometry" />
        </mxCell>
        <mxCell id="XgfCKwN_KVts_UlWrQIR-178" value="Drop&lt;div&gt;Out&lt;/div&gt;" style="ellipse;whiteSpace=wrap;html=1;aspect=fixed;fontSize=18;" vertex="1" parent="WIyWlLk6GJQsqaUBKTNV-1">
          <mxGeometry x="134.5" y="2473.75" width="80" height="80" as="geometry" />
        </mxCell>
        <mxCell id="XgfCKwN_KVts_UlWrQIR-182" style="edgeStyle=orthogonalEdgeStyle;rounded=0;orthogonalLoop=1;jettySize=auto;html=1;exitX=0.5;exitY=0;exitDx=0;exitDy=0;entryX=0.069;entryY=0.473;entryDx=0;entryDy=0;entryPerimeter=0;" edge="1" parent="WIyWlLk6GJQsqaUBKTNV-1" source="XgfCKwN_KVts_UlWrQIR-175" target="XgfCKwN_KVts_UlWrQIR-178">
          <mxGeometry relative="1" as="geometry" />
        </mxCell>
        <mxCell id="XgfCKwN_KVts_UlWrQIR-184" value="Dense" style="rounded=0;whiteSpace=wrap;html=1;direction=south;horizontal=0;fontSize=18;" vertex="1" parent="WIyWlLk6GJQsqaUBKTNV-1">
          <mxGeometry x="347.44" y="2481.93" width="46" height="63.63" as="geometry" />
        </mxCell>
        <mxCell id="XgfCKwN_KVts_UlWrQIR-96" value="premise" style="rounded=0;whiteSpace=wrap;html=1;fontSize=18;direction=south;horizontal=0;" vertex="1" parent="WIyWlLk6GJQsqaUBKTNV-1">
          <mxGeometry x="-1206" y="2373" width="60" height="98" as="geometry" />
        </mxCell>
        <mxCell id="XgfCKwN_KVts_UlWrQIR-98" value="Hypothosis" style="rounded=0;whiteSpace=wrap;html=1;fontSize=18;direction=south;horizontal=0;" vertex="1" parent="WIyWlLk6GJQsqaUBKTNV-1">
          <mxGeometry x="-1206" y="2499" width="60" height="98" as="geometry" />
        </mxCell>
        <mxCell id="XgfCKwN_KVts_UlWrQIR-101" value="premise&amp;nbsp;&lt;div&gt;Tokinosed&lt;/div&gt;" style="rounded=0;whiteSpace=wrap;html=1;horizontal=0;direction=south;fontSize=18;" vertex="1" parent="WIyWlLk6GJQsqaUBKTNV-1">
          <mxGeometry x="-1052" y="2439.5" width="60" height="109" as="geometry" />
        </mxCell>
        <mxCell id="XgfCKwN_KVts_UlWrQIR-103" value="hypothesis&amp;nbsp;&lt;div&gt;Tokenized&lt;/div&gt;" style="rounded=0;whiteSpace=wrap;html=1;horizontal=0;direction=south;fontSize=18;" vertex="1" parent="WIyWlLk6GJQsqaUBKTNV-1">
          <mxGeometry x="-1052" y="2609.5" width="60" height="109" as="geometry" />
        </mxCell>
        <mxCell id="XgfCKwN_KVts_UlWrQIR-104" value="(premise, hypothesis)&lt;div&gt;Tokinised&lt;/div&gt;" style="rounded=0;whiteSpace=wrap;html=1;horizontal=0;direction=south;fontSize=19;" vertex="1" parent="WIyWlLk6GJQsqaUBKTNV-1">
          <mxGeometry x="-1052" y="2269.5" width="72" height="117.5" as="geometry" />
        </mxCell>
        <mxCell id="XgfCKwN_KVts_UlWrQIR-186" value="" style="rounded=0;whiteSpace=wrap;html=1;" vertex="1" parent="WIyWlLk6GJQsqaUBKTNV-1">
          <mxGeometry x="-224" y="4130" width="120" height="60" as="geometry" />
        </mxCell>
      </root>
    </mxGraphModel>
  </diagram>
</mxfile>
